<svg width="66" height="56" viewBox="0 0 66 56" fill="none" xmlns="http://www.w3.org/2000/svg">
<path d="M16.6336 0.683606C12.9729 0.723664 9.60486 2.05489 7.30566 4.34398C5.41799 6.22345 3.71105 9.25696 2.61662 12.744C1.52232 16.2309 1.0598 20.1716 1.97131 23.8018L1.97213 23.8056L1.97322 23.8094C4.25984 32.6804 0.75 42.6116 0.75 52.4958V53.6326L1.8834 53.722C8.37863 54.2351 16.8388 55.5065 23.1999 55.2937C26.3805 55.1875 29.0772 54.7943 30.9091 53.351C31.8248 52.6291 32.4731 51.5558 32.5934 50.3278C32.711 49.1325 32.3866 47.8497 31.7057 46.4341L27.7928 34.9981C28.0094 32.6495 28.3089 30.3121 28.6125 27.9621C27.3622 28.4238 26.3388 28.9274 25.6092 29.4745L25.076 29.8743L24.4498 29.646C22.7258 29.0175 21.6006 27.5728 21.0184 25.8999C20.5079 24.4329 20.3276 22.7537 20.3031 20.9397C18.5094 20.313 17.0757 19.6542 15.9721 18.8349C13.1284 28.2562 7.71773 34.9176 13.0972 43.3932C20.5558 50.4186 24.1635 48.4373 29.2385 46.8265L29.4135 47.3375L29.4481 47.4081C30.0395 48.6095 30.2022 49.4985 30.1443 50.0877C30.0863 50.677 29.8763 51.0319 29.3855 51.4186C28.4042 52.1918 26.0933 52.7352 23.1175 52.8346C17.4942 53.0226 9.68703 51.9422 3.23691 51.3782C3.50447 42.4155 6.79324 32.6628 4.35801 23.2032L4.35609 23.1959C3.60045 20.1781 3.97273 16.6416 4.96449 13.4813C5.95734 10.319 7.59018 7.53404 9.04186 6.08892C10.877 4.26167 13.7597 3.13279 16.9558 3.16245C17.0589 3.16341 17.1623 3.16546 17.2662 3.16888C18.9827 3.22493 25.2045 4.16392 27.1419 6.08782C27.9568 5.62927 28.1613 5.6413 28.6455 5.58976C25.1886 2.34405 21.1528 0.830305 17.3693 0.693586C17.1242 0.684694 16.8789 0.681595 16.6337 0.68429L16.6336 0.683606ZM22.6734 7.03378C20.9203 7.01191 19.6984 7.45487 18.8084 8.11208C17.2256 9.28075 16.4478 11.4193 16.0666 13.7282C15.8684 14.9305 16.0641 15.578 16.865 16.371C17.6136 17.112 19.0354 17.8899 21.1966 18.6453C24.1599 15.01 25.6844 11.3903 26.7149 7.7048C25.119 7.25089 23.7882 7.04773 22.6735 7.03378H22.6734ZM32.3073 7.87597C31.1952 7.88198 30.1526 7.93927 29.171 8.0332C28.2228 11.516 26.8202 15.0856 24.2967 18.6285C24.6045 18.5984 24.9447 18.5745 25.2626 18.5462C36.3507 17.4027 45.9834 17.1208 55.5184 17.9337C55.4425 17.8033 55.3724 17.6696 55.3082 17.5331C54.8374 16.5271 54.8023 15.4376 55.1414 14.5387C55.4058 13.8368 55.8386 13.2623 56.3718 12.804C54.9196 12.1864 53.3579 11.6104 51.7283 11.09C45.8184 9.20159 39.0107 8.03073 33.4427 7.88773C33.0562 7.87775 32.6781 7.87405 32.3073 7.87597ZM21.0963 9.1089C22.4556 9.1089 23.5573 10.2208 23.5573 11.5925C23.5573 12.9642 22.4556 14.0763 21.0963 14.0763C19.7374 14.0763 18.6354 12.9642 18.6354 11.5927C18.6354 10.2211 19.7374 9.10917 21.0963 9.10917V9.1089ZM59.105 14.0852C58.2933 14.3764 57.6257 14.9252 57.4441 15.4064C57.3301 15.7089 57.3078 16.0002 57.5371 16.4901C57.7562 16.9587 58.2622 17.5948 59.2094 18.3038C59.4443 18.3307 59.6793 18.3576 59.9144 18.3861C61.2204 18.5072 62.4423 18.6408 63.4488 18.804C64.0255 18.8973 64.4969 18.9978 64.9628 19.104C65.0572 19.1193 65.1515 19.1333 65.2463 19.1488C64.619 18.0066 63.4521 16.8082 61.7512 15.6495C60.9623 15.1122 60.0736 14.5889 59.1047 14.0849L59.105 14.0852ZM45.2927 20.2699C44.6351 20.268 43.9736 20.2686 43.31 20.2713C36.9961 20.298 30.5194 20.5505 25.413 21.0045C24.54 21.0948 23.6735 21.1817 22.7803 21.2827C22.8275 22.7867 22.9999 24.106 23.3426 25.0904C23.6817 26.0641 24.1189 26.679 24.7678 27.0701C28.7432 24.5025 35.6397 23.4101 43.2221 22.5903C49.4596 21.9163 56.0832 21.5216 61.6657 21.0727C61.043 20.9866 60.4223 20.9245 59.8013 20.8483C57.3367 20.6172 54.3517 20.4468 51.0516 20.3561C49.1325 20.3041 47.2128 20.2755 45.293 20.2702L45.2927 20.2699Z" fill="black"/>
</svg>
